<svg width="92" height="43" viewBox="0 0 92 43" fill="none" xmlns="http://www.w3.org/2000/svg">
<g id="Official logo" clip-path="url(#clip0_1187_120)">
<path id="Vector" d="M11.9554 16.4357C20.151 12.37 28.2716 8.32815 36.3999 4.30311C39.0571 2.98729 41.7581 1.75871 44.3913 0.398289C45.3946 -0.118736 46.2002 -0.138124 47.2223 0.377607C55.5711 4.59997 63.9353 8.79002 72.3148 12.9478C78.1478 15.856 84.0002 18.719 89.8332 21.6234C90.5574 21.9847 91.7189 22.1825 91.2784 23.391C90.8378 24.5996 89.8707 24.0095 89.0515 23.8046C78.9501 21.2794 68.8477 18.7555 58.7442 16.2328C54.7589 15.2382 50.7754 14.2364 46.7823 13.2748C46.2485 13.1456 45.6921 13.1409 45.1562 13.2612C36.7677 15.3065 28.3836 17.3705 20.0037 19.4532C13.9852 20.9405 7.96982 22.4313 1.95743 23.9255C1.82176 23.9591 1.67835 23.9662 1.54785 24.0121C0.869519 24.2512 0.337827 24.0179 0.0858751 23.3962C-0.191272 22.7098 0.23899 22.2975 0.833984 21.9983C4.39534 20.2232 7.95433 18.4431 11.5109 16.6581C11.6356 16.5954 11.759 16.5301 11.9554 16.4357Z" fill="#2E75B5"/>
<path id="Vector_2" d="M79.1925 27.6169C79.3934 27.5154 79.52 27.4036 79.6447 27.4049C81.7327 27.4288 83.8303 27.3454 85.9047 27.5296C88.6827 27.7765 90.2538 29.5518 90.8869 32.1531C91.5129 34.7253 91.5039 37.2878 90.0167 39.6105C88.9889 41.2146 87.5269 42.226 85.5384 42.2474C83.6326 42.268 81.7269 42.2984 79.8204 42.2428C78.781 42.2118 78.4327 41.4944 78.4366 40.5166C78.4508 36.7081 78.4185 32.8996 78.4728 29.0917C78.4793 28.6115 78.8921 28.1365 79.1925 27.6169ZM85.238 39.5731C86.6089 39.2984 87.4165 38.3451 87.5728 37.0816C87.752 35.5781 87.7552 34.0588 87.5825 32.5545C87.4229 31.1236 86.4009 30.2925 84.9654 30.1328C84.0649 30.0377 83.157 30.0353 82.256 30.1257C82.0105 30.1496 81.6261 30.6428 81.6209 30.9297C81.5718 33.5795 81.6015 36.2292 81.5847 38.879C81.5809 39.5181 81.8619 39.7527 82.4691 39.7262C83.3374 39.6874 84.207 39.6745 85.238 39.5763V39.5731Z" fill="#2B77BB"/>
<path id="Vector_3" d="M56.8397 39.7023C56.8397 36.1743 56.8359 32.7477 56.8397 29.3211C56.8397 27.9264 57.3986 27.3422 58.8043 27.359C60.6843 27.381 62.5765 27.3525 64.4403 27.5529C67.2383 27.8579 68.7274 29.758 69.3392 32.3069C69.8657 34.4991 69.8353 36.732 68.8275 38.8466C67.8675 40.8611 66.3215 42.0709 64.065 42.2364C62.5371 42.3482 61.0034 42.4361 59.4723 42.4367C57.27 42.4367 56.8391 41.9675 56.8372 39.6997M66.1885 36.3152C66.2111 35.4104 66.3222 34.4997 66.2401 33.6059C66.0147 31.1397 64.8247 30.0934 62.364 30.074C61.9117 30.074 61.4556 30.1037 61.0073 30.0669C60.2372 30.0023 59.9646 30.3287 59.9736 31.0958C60.0072 33.2931 59.9736 35.4905 59.9872 37.6833C60.0021 39.9841 59.7256 39.7094 62.0778 39.7204C64.6412 39.7346 65.6413 38.9203 66.191 36.3177L66.1885 36.3152Z" fill="#2B77BB"/>
<path id="Vector_4" d="M28.5746 39.5659C28.915 39.2518 29.0849 38.7633 28.9241 36.226C28.7949 34.1378 28.9364 33.7055 28.9519 32.769C28.9661 31.8862 29.6257 31.1216 30.3899 31.1656C31.2834 31.2173 31.837 31.7892 31.8513 32.652C31.8978 35.4808 31.8868 38.3115 31.8564 41.1403C31.848 41.9242 31.3396 42.5724 30.5992 42.566C30.1115 42.5614 29.6231 41.9972 29.147 41.6663C29.0481 41.5978 29.0029 41.4524 28.9622 41.3878C28.1224 41.7639 27.3697 42.2241 26.5519 42.4451C24.0246 43.1282 21.852 41.4402 21.8197 38.8195C21.7964 36.9336 21.8068 35.0471 21.8197 33.1607C21.8268 31.956 22.3636 31.2115 23.2254 31.1572C24.1118 31.1016 24.9213 31.9831 24.9478 33.1387C24.9852 34.7796 24.9794 36.4224 24.9536 38.064C24.9407 38.9352 25.1293 39.7598 25.9872 40.05C26.3348 40.1683 26.6843 40.1657 27.0112 40.134C27.1824 40.1159 28.0694 40.0319 28.5746 39.5659Z" fill="#2B77BB"/>
<path id="Vector_5" d="M5.02352 30.2595C4.02475 30.1949 3.02662 30.116 2.02657 30.0805C0.807507 30.0372 0.239652 29.6559 0.224147 28.8099C0.205412 27.8114 0.766803 27.3551 2.07114 27.3519C5.03901 27.3435 8.00688 27.3377 10.9741 27.3616C11.4102 27.3655 11.9742 27.4036 12.2481 27.666C12.6008 28.0046 12.9587 28.6354 12.8734 29.0484C12.7875 29.4478 12.1848 29.9015 11.7293 30.0178C11.0723 30.1858 10.3436 30.0727 9.64521 30.076C8.18905 30.0831 8.18454 30.0818 8.18325 31.4978C8.18002 34.5353 8.18647 37.5728 8.17872 40.6136C8.17485 41.8518 7.68 42.5576 6.65539 42.608C5.67019 42.6565 5.14173 42.0412 4.97054 41.0976C4.92149 40.9159 4.89289 40.7293 4.88526 40.5412C4.95761 40.039 5.02997 39.6952 5.02997 39.3507C5.03255 36.321 5.02739 33.2899 5.02352 30.2595Z" fill="#2B77BB"/>
<path id="Vector_6" d="M40.8027 34.8306C40.4422 34.4939 40.1857 34.1411 39.8453 33.9123C39.4273 33.6318 38.9589 33.3423 38.4776 33.2595C37.7618 33.1361 36.9711 33.2964 36.7824 34.1113C36.5751 35.0071 37.4646 35.0258 38.0099 35.2203C39.1534 35.6301 40.3492 35.9048 41.4668 36.3701C42.5302 36.8128 43.3868 37.5334 43.4139 38.8466C43.4417 40.2271 42.8616 41.3148 41.6593 41.943C39.5739 43.0332 36.0253 42.9369 34.4509 41.1138C34.1279 40.7415 33.9147 40.2258 33.7997 39.7404C33.6414 39.0702 33.9935 38.4782 34.6492 38.4091C35.1053 38.3613 35.7817 38.5881 36.0472 38.9332C36.5957 39.6441 37.1042 40.3169 38.0422 40.4778C38.3491 40.5308 38.725 40.6478 38.9647 40.5276C39.4867 40.2646 40.2077 39.9582 40.3614 39.5052C40.596 38.8156 39.9228 38.4427 39.2729 38.2449C38.1746 37.9115 37.0764 37.5877 35.9943 37.2109C34.7772 36.7818 33.9018 35.8892 33.8533 34.6258C33.8081 33.4554 34.4089 32.4459 35.5362 31.8157C37.5945 30.666 40.8163 31.0615 42.348 32.6708C42.8926 33.2421 42.9675 33.8884 42.6019 34.4765C42.2175 35.0892 41.5747 35.2901 40.8027 34.8306Z" fill="#2B77BB"/>
<path id="Vector_7" d="M48.2249 33.595C47.524 34.3589 47.8851 34.8009 48.599 35.0484C49.3846 35.3205 50.207 35.4873 51.0029 35.7322C51.5024 35.8815 51.9903 36.0677 52.4623 36.2893C54.0844 37.0687 54.6258 37.8856 54.525 39.3268C54.4301 40.6788 53.4391 41.8409 51.9687 42.281C50.2141 42.8064 48.4401 42.8626 46.8004 42.0011C46.1021 41.6353 45.4509 40.9916 45.0432 40.315C44.6672 39.69 44.7202 38.8731 45.5852 38.4531C46.3818 38.0653 46.9309 38.402 47.3108 39.0948C47.9219 40.2096 48.9123 40.6834 50.0926 40.5069C50.6133 40.4287 51.3265 39.9582 51.4803 39.5052C51.7135 38.8188 51.0442 38.4434 50.3943 38.2456C49.2657 37.9031 48.1229 37.5935 47.0227 37.1747C45.8734 36.7372 45.0122 35.8666 44.978 34.6297C44.945 33.4573 45.5039 32.4465 46.6409 31.8196C48.442 30.8269 51.625 31.0215 53.0663 32.2837C53.963 33.0689 54.1884 34.0099 53.6264 34.6264C52.9616 35.3561 52.1586 35.2152 51.2283 34.205C50.2302 33.1238 49.5629 32.9732 48.2249 33.595Z" fill="#2B77BB"/>
<path id="Vector_8" d="M72.1339 29.0264C72.2082 27.7106 72.7095 27.1108 73.7031 27.1483C74.6967 27.1858 75.2859 27.8708 75.2898 29.0761C75.3001 32.9754 75.3001 36.8746 75.2898 40.7738C75.2898 41.8815 74.5856 42.6351 73.6204 42.6422C72.8504 42.6474 72.2715 41.9811 72.1442 40.7609C72.1397 36.7288 72.1365 32.8776 72.1339 29.0264Z" fill="#2B77BB"/>
<path id="Vector_9" d="M19.6419 31.3569C20.038 31.5223 20.5147 31.5954 20.6304 31.8396C20.8746 32.3567 21.1291 33.0088 21.0122 33.52C20.8733 34.1255 20.2524 34.3601 19.5689 34.1016C17.7206 33.4159 16.7826 33.8812 16.5817 36.4515C16.4577 38.0439 16.4622 39.6454 16.3536 41.2385C16.289 42.1523 15.6327 42.6435 14.807 42.6041C13.9433 42.5621 13.4504 41.9113 13.4413 41.0349C13.4181 38.3147 13.4265 35.5932 13.4342 32.8724C13.4342 32.1104 13.7417 31.3478 14.4989 31.2851C15.1352 31.2328 15.811 31.6671 16.7703 31.9864C17.3195 31.4687 18.2762 30.7959 19.6419 31.3569Z" fill="#2B77BB"/>
<path id="Vector_10" d="M4.96798 30.3274C5.03258 33.2899 5.03839 36.321 5.03258 39.3514C5.03258 39.6958 4.96023 40.0397 4.88981 40.4617C4.87237 37.1579 4.88916 33.7766 4.96798 30.3274Z" fill="#2288BC"/>
</g>
<defs>
<clipPath id="clip0_1187_120">
<rect width="91.3753" height="42.6642" fill="white"/>
</clipPath>
</defs>
</svg>
