<svg width="23" height="28" viewBox="0 0 23 28" fill="none" xmlns="http://www.w3.org/2000/svg">
<path d="M0 25.6667C0.000721618 26.2853 0.253371 26.8784 0.70252 27.3158C1.15167 27.7532 1.76064 27.9993 2.39583 28H20.6042C21.2394 27.9993 21.8483 27.7532 22.2975 27.3158C22.7466 26.8784 22.9993 26.2853 23 25.6667V8.23987C23.0008 7.93333 22.9393 7.62966 22.8188 7.34644C22.6984 7.06323 22.5214 6.80609 22.2983 6.58991L16.2335 0.683431L16.2335 0.68349C16.0116 0.466115 15.7476 0.293779 15.4568 0.176458C15.166 0.0591374 14.8542 -0.000836455 14.5394 8.81182e-06H2.39583C1.76064 0.000711605 1.15167 0.24677 0.70252 0.684202C0.253371 1.12163 0.000721618 1.71472 0 2.33334V25.6667ZM6.70833 12.6C7.18218 12.6 7.64539 12.7369 8.03938 12.9932C8.43338 13.2496 8.74046 13.614 8.92179 14.0404C9.10313 14.4668 9.15057 14.9359 9.05813 15.3885C8.96568 15.8412 8.7375 16.2569 8.40244 16.5833C8.06738 16.9096 7.64048 17.1318 7.17573 17.2218C6.71099 17.3119 6.22927 17.2657 5.79149 17.0891C5.3537 16.9125 4.97953 16.6134 4.71627 16.2297C4.45301 15.846 4.3125 15.3948 4.3125 14.9333C4.31322 14.3147 4.56587 13.7216 5.01502 13.2842C5.46417 12.8468 6.07314 12.6007 6.70833 12.6ZM8.14583 27.0667H7.1875V21.3734L7.70351 22.5795C7.73991 22.6645 7.80133 22.7372 7.88004 22.7883C7.95875 22.8394 8.05123 22.8667 8.14583 22.8667V27.0667ZM8.46528 21.9333L7.22743 19.04L7.64235 18.0702C7.94145 17.9855 8.22691 17.8605 8.49042 17.6988L10.3021 21.9333H8.46528ZM4.92624 17.6988C5.41422 17.9988 5.97383 18.1701 6.55026 18.1961L4.95138 21.9333H3.11458L4.92624 17.6988ZM5.71315 22.5795L6.22916 21.3734V27.0667H5.27083V22.8667C5.36543 22.8667 5.45791 22.8394 5.53662 22.7883C5.61533 22.7372 5.67675 22.6645 5.71315 22.5795ZM0.958333 2.33334C0.958769 1.96217 1.11036 1.60632 1.37985 1.34386C1.64934 1.0814 2.01472 0.933766 2.39583 0.933342H4.3125V3.73334H5.27083V0.933342H6.22916V3.73334H7.1875V0.933342H8.14583V3.73334H9.10416V0.933342H14.5394C14.6453 0.933409 14.7508 0.94477 14.8542 0.967222V5.60001C14.8549 6.21863 15.1075 6.81171 15.5567 7.24915C16.0058 7.68658 16.6148 7.93264 17.25 7.93334H20.125V7.00001H17.25C16.8689 6.99959 16.5035 6.85195 16.234 6.58949C15.9645 6.32703 15.8129 5.97118 15.8125 5.60001V1.59335L21.6206 7.24986C21.7545 7.37957 21.8607 7.53386 21.9329 7.7038C22.0052 7.87373 22.0422 8.05594 22.0417 8.23987V25.6667C22.0412 26.0378 21.8896 26.3937 21.6201 26.6561C21.3507 26.9186 20.9853 27.0662 20.6042 27.0667H9.10416V22.8667H11.0208C11.0997 22.8667 11.1774 22.8477 11.2469 22.8114C11.3165 22.7752 11.3758 22.7228 11.4195 22.6588C11.4633 22.5949 11.4901 22.5215 11.4978 22.445C11.5054 22.3685 11.4935 22.2914 11.4631 22.2205L9.25399 17.0568C9.80052 16.4377 10.0884 15.6412 10.0607 14.8251C10.0329 14.009 9.69156 13.2329 9.10416 12.6503V9.33334H8.14583V11.9825C7.84282 11.842 7.51972 11.7469 7.1875 11.7005V9.33334H6.22916V11.7005C5.89694 11.7469 5.57384 11.842 5.27083 11.9825V9.33334H4.3125V12.6503C3.72511 13.2329 3.38374 14.009 3.356 14.8251C3.32825 15.6412 3.61614 16.4377 4.16267 17.0568L1.95352 22.2205C1.92318 22.2914 1.91129 22.3685 1.9189 22.445C1.92651 22.5215 1.95339 22.5949 1.99715 22.6588C2.0409 22.7228 2.10019 22.7752 2.16974 22.8114C2.23929 22.8477 2.31695 22.8667 2.39583 22.8667H4.3125V27.0667H2.39583C2.01472 27.0662 1.64934 26.9186 1.37985 26.6561C1.11036 26.3937 0.958769 26.0378 0.958333 25.6667V2.33334Z" fill="#718EBF"/>
</svg>
