<svg width="19" height="24" viewBox="0 0 19 24" fill="none" xmlns="http://www.w3.org/2000/svg">
<path d="M0 22C0.000594468 22.5302 0.208726 23.0386 0.578735 23.4135C0.948744 23.7885 1.45041 23.9994 1.97368 24H16.9737C17.497 23.9994 17.9986 23.7885 18.3686 23.4135C18.7386 23.0386 18.9468 22.5302 18.9474 22V7.06275C18.9481 6.79999 18.8973 6.53971 18.7981 6.29695C18.6989 6.0542 18.5531 5.83379 18.3693 5.64849L13.3732 0.585798L13.3732 0.585848C13.1903 0.399527 12.9728 0.25181 12.7333 0.15125C12.4937 0.0506892 12.2369 -0.000716961 11.9776 7.55299e-06H1.97368C1.45041 0.000609947 0.948744 0.211517 0.578735 0.586459C0.208726 0.961401 0.000594468 1.46976 0 2.00001V22ZM5.52631 10.8C5.91667 10.8 6.29826 10.9173 6.62283 11.1371C6.9474 11.3568 7.20038 11.6692 7.34976 12.0346C7.49914 12.4001 7.53823 12.8022 7.46207 13.1902C7.38592 13.5781 7.19794 13.9345 6.92192 14.2142C6.6459 14.4939 6.29422 14.6844 5.91136 14.7616C5.5285 14.8387 5.13166 14.7991 4.77102 14.6478C4.41037 14.4964 4.10213 14.24 3.88526 13.9111C3.66839 13.5822 3.55263 13.1956 3.55263 12.8C3.55323 12.2698 3.76136 11.7614 4.13137 11.3865C4.50137 11.0115 5.00304 10.8006 5.52631 10.8ZM6.71052 23.2H5.92105V18.32L6.34614 19.3539C6.37613 19.4267 6.42673 19.489 6.49157 19.5328C6.55641 19.5766 6.6326 19.6 6.71052 19.6V23.2ZM6.97369 18.8L5.95395 16.32L6.29576 15.4887C6.54216 15.4162 6.77732 15.309 6.9944 15.1704L8.48684 18.8H6.97369ZM4.05823 15.1704C4.46023 15.4275 4.92123 15.5744 5.39609 15.5967L4.07894 18.8H2.56579L4.05823 15.1704ZM4.70648 19.3539L5.13158 18.32V23.2H4.3421V19.6C4.42003 19.6 4.49622 19.5766 4.56106 19.5328C4.6259 19.489 4.6765 19.4268 4.70648 19.3539ZM0.789473 2.00001C0.789833 1.68186 0.914713 1.37685 1.13672 1.15188C1.35872 0.926916 1.65972 0.800371 1.97368 0.800007H3.55263V3.20001H4.3421V0.800007H5.13158V3.20001H5.92105V0.800007H6.71052V3.20001H7.5V0.800007H11.9776C12.0648 0.800065 12.1517 0.809803 12.2368 0.829048V4.80001C12.2374 5.33025 12.4456 5.83861 12.8156 6.21355C13.1856 6.5885 13.6873 6.7994 14.2105 6.80001H16.5789V6.00001H14.2105C13.8966 5.99965 13.5956 5.8731 13.3736 5.64814C13.1515 5.42317 13.0267 5.11816 13.0263 4.80001V1.36573L17.811 6.21417C17.9213 6.32535 18.0088 6.4576 18.0683 6.60326C18.1279 6.74891 18.1583 6.90509 18.1579 7.06275V22C18.1575 22.3181 18.0326 22.6232 17.8106 22.8481C17.5886 23.0731 17.2876 23.1996 16.9737 23.2H7.5V19.6H9.07895C9.14393 19.6 9.20791 19.5837 9.2652 19.5527C9.3225 19.5216 9.37134 19.4767 9.40738 19.4219C9.44343 19.3671 9.46557 19.3041 9.47184 19.2386C9.47811 19.173 9.46832 19.1069 9.44333 19.0461L7.62343 14.6201C8.07366 14.0894 8.31082 13.4067 8.28796 12.7072C8.2651 12.0078 7.98389 11.3425 7.5 10.8431V8.00001H6.71052V10.2707C6.46091 10.1503 6.19473 10.0688 5.92105 10.029V8.00001H5.13158V10.029C4.85789 10.0688 4.59172 10.1503 4.3421 10.2707V8.00001H3.55263V10.8431C3.06874 11.3425 2.78752 12.0078 2.76467 12.7072C2.74181 13.4067 2.97897 14.0894 3.4292 14.6201L1.6093 19.0461C1.58431 19.1069 1.57452 19.173 1.58079 19.2386C1.58706 19.3041 1.6092 19.3671 1.64525 19.4219C1.68129 19.4767 1.73013 19.5216 1.78743 19.5527C1.84472 19.5837 1.9087 19.6 1.97368 19.6H3.55263V23.2H1.97368C1.65972 23.1996 1.35872 23.0731 1.13672 22.8481C0.914713 22.6232 0.789833 22.3181 0.789473 22V2.00001Z" fill="#718EBF"/>
</svg>
