<svg width="14" height="15" viewBox="0 0 14 15" fill="none" xmlns="http://www.w3.org/2000/svg">
<path d="M12.6878 15H1.31221C0.964568 14.9987 0.631517 14.8537 0.385696 14.5967C0.139876 14.3397 0.0012306 13.9914 0 13.6279L0 2.75269C0.0012306 2.38919 0.139876 2.04094 0.385696 1.78391C0.631517 1.52687 0.964568 1.3819 1.31221 1.38062H2.52285V3.06885C2.52393 3.29459 2.57348 3.5172 2.66784 3.72024C2.7622 3.92327 2.89897 4.10156 3.06805 4.24194C3.37046 4.49793 3.74775 4.6376 4.13684 4.6376C4.52593 4.6376 4.90322 4.49793 5.20564 4.24194C5.37471 4.10156 5.51148 3.92327 5.60584 3.72024C5.7002 3.5172 5.74975 3.29459 5.75083 3.06885V1.38062H8.19546V3.06885C8.19654 3.29459 8.24609 3.5172 8.34046 3.72024C8.43482 3.92327 8.57159 4.10156 8.74066 4.24194C9.04307 4.49793 9.42037 4.6376 9.80946 4.6376C10.1985 4.6376 10.5758 4.49793 10.8783 4.24194C11.0473 4.10156 11.1841 3.92327 11.2785 3.72024C11.3728 3.5172 11.4224 3.29459 11.4234 3.06885V1.38062H12.6878C13.0352 1.38254 13.3679 1.52771 13.6136 1.78461C13.8593 2.04151 13.9982 2.38938 14 2.75269V13.6279C13.9991 13.9915 13.8605 14.34 13.6146 14.5971C13.3688 14.8542 13.0355 14.999 12.6878 15ZM9.75751 6.92993H11.6371C11.6996 6.93021 11.7596 6.9558 11.8044 7.00132C11.8492 7.04684 11.8755 7.10876 11.8776 7.17407V8.80981C11.8755 8.87513 11.8492 8.93705 11.8044 8.98257C11.7596 9.02809 11.6996 9.05368 11.6371 9.05396H9.75751C9.69614 9.05211 9.63777 9.0258 9.59436 8.98041C9.55094 8.93501 9.52578 8.87398 9.52402 8.80981V7.18018C9.5255 7.11591 9.55057 7.05471 9.59404 7.00926C9.63751 6.9638 9.69605 6.93758 9.75751 6.93604V6.92993ZM6.07889 6.92993H7.95964C8.02101 6.93178 8.07938 6.95809 8.12279 7.00348C8.1662 7.04887 8.19137 7.10991 8.19313 7.17407V8.80981C8.19109 8.87389 8.16584 8.93475 8.12248 8.98009C8.07913 9.02542 8.02092 9.05182 7.95964 9.05396H6.07889C6.01752 9.05211 5.95915 9.0258 5.91574 8.98041C5.87233 8.93501 5.84716 8.87398 5.8454 8.80981V7.18018C5.84716 7.11601 5.87233 7.05498 5.91574 7.00958C5.95915 6.96419 6.01752 6.93788 6.07889 6.93604V6.92993ZM2.36174 6.92993H4.2425C4.30386 6.93178 4.36223 6.95809 4.40564 7.00348C4.44906 7.04887 4.47422 7.10991 4.47598 7.17407V8.80981C4.47394 8.87389 4.44869 8.93475 4.40534 8.98009C4.36198 9.02542 4.30377 9.05182 4.2425 9.05396H2.36174C2.29936 9.05367 2.23952 9.02804 2.19486 8.98249C2.15021 8.93693 2.12423 8.87502 2.12242 8.80981V7.18018C2.12394 7.11487 2.14982 7.05278 2.19454 7.00716C2.23926 6.96154 2.29927 6.93602 2.36174 6.93604V6.92993ZM9.75751 10.4077H11.6371C11.6996 10.408 11.7596 10.4336 11.8044 10.4791C11.8492 10.5246 11.8755 10.5865 11.8776 10.6519V12.2876C11.8773 12.3541 11.8518 12.4177 11.8067 12.4646C11.7617 12.5115 11.7007 12.5378 11.6371 12.5378H9.75751C9.69515 12.5359 9.63593 12.5088 9.59237 12.4621C9.5488 12.4154 9.52429 12.3528 9.52402 12.2876V10.658C9.52578 10.5938 9.55094 10.5328 9.59436 10.4874C9.63777 10.442 9.69614 10.4157 9.75751 10.4138V10.4077ZM6.07889 10.4077H7.95964C8.02101 10.4096 8.07938 10.4359 8.12279 10.4813C8.1662 10.5267 8.19137 10.5877 8.19313 10.6519V12.2876C8.19285 12.3528 8.16834 12.4154 8.12478 12.4621C8.08121 12.5088 8.022 12.5359 7.95964 12.5378H6.07889C6.01653 12.5359 5.95731 12.5088 5.91375 12.4621C5.87018 12.4154 5.84567 12.3528 5.8454 12.2876V10.658C5.84744 10.5939 5.87269 10.533 5.91604 10.4877C5.9594 10.4424 6.01761 10.416 6.07889 10.4138V10.4077ZM2.36174 10.4077H4.2425C4.30386 10.4096 4.36223 10.4359 4.40564 10.4813C4.44906 10.5267 4.47422 10.5877 4.47598 10.6519V12.2876C4.47571 12.3528 4.4512 12.4154 4.40763 12.4621C4.36407 12.5088 4.30485 12.5359 4.2425 12.5378H2.36174C2.29836 12.5375 2.23767 12.5111 2.19285 12.4642C2.14804 12.4173 2.12272 12.3539 2.12242 12.2876V10.658C2.12423 10.5928 2.15021 10.5308 2.19486 10.4853C2.23952 10.4397 2.29936 10.4141 2.36174 10.4138V10.4077ZM9.17612 0.543213C9.17612 0.244141 9.4563 0 9.80654 0C10.1568 0 10.4405 0.244141 10.4405 0.543213V3.06885C10.4405 3.36914 10.1579 3.61206 9.80654 3.61206C9.45514 3.61206 9.17378 3.36792 9.17378 3.06885V0.543213H9.17612ZM3.50233 0.543213C3.50233 0.244141 3.78719 0 4.13742 0C4.48766 0 4.77018 0.244141 4.77018 0.543213V3.06885C4.77018 3.36914 4.48766 3.61206 4.13742 3.61206C3.78719 3.61206 3.50233 3.36914 3.50233 3.06885V0.543213ZM0.42028 5.354V13.4814C0.421203 13.7673 0.53023 14.0413 0.723572 14.2434C0.916914 14.4456 1.17888 14.5596 1.4523 14.5605H12.543C12.8167 14.5599 13.0789 14.446 13.2725 14.2438C13.4661 14.0417 13.5753 13.7676 13.5762 13.4814V5.354H0.42028Z" fill="#2B77BB"/>
</svg>
