<svg width="23" height="24" viewBox="0 0 23 24" fill="none" xmlns="http://www.w3.org/2000/svg">
<path d="M11.1316 24C10.6579 24 10.1842 23.88 9.7579 23.64L1.46842 19.032C0.568421 18.528 0 17.568 0 16.512V7.488C0 6.432 0.568421 5.472 1.46842 4.968L9.7579 0.36C10.6105 -0.12 11.6289 -0.12 12.4816 0.36L20.7711 4.968C21.6711 5.472 22.2395 6.432 22.2395 7.488V16.32C22.2395 16.584 22.0263 16.8 21.7658 16.8C21.5053 16.8 21.2921 16.584 21.2921 16.32V7.488C21.2921 6.792 20.9132 6.144 20.2974 5.808L12.0316 1.2C11.4632 0.888 10.7763 0.888 10.2079 1.2L1.91842 5.808C1.30263 6.144 0.947368 6.792 0.947368 7.488V16.512C0.947368 17.208 1.32632 17.856 1.91842 18.192L10.2079 22.8C10.7763 23.112 11.4632 23.112 12.0316 22.8L17.5263 19.752C17.7632 19.632 18.0474 19.704 18.1658 19.944C18.2842 20.184 18.2132 20.472 17.9763 20.592L12.5053 23.64C12.0789 23.88 11.6053 24 11.1316 24Z" fill="#718EBF"/>
<path d="M13.0737 7.27201C12.9552 7.27201 12.8131 7.22401 12.7184 7.10401C12.1973 6.52801 11.6052 6.14401 10.9894 5.95201C10.7289 5.88001 10.5868 5.61601 10.6815 5.35201C10.7526 5.08801 11.0131 4.96801 11.2737 5.04001C12.0552 5.28001 12.7894 5.78401 13.4289 6.48001C13.5947 6.67201 13.5947 6.98401 13.4052 7.15201C13.2868 7.24801 13.1684 7.27201 13.0737 7.27201Z" fill="#718EBF"/>
<path d="M10.35 19.056C10.2789 19.056 10.1842 19.032 10.1131 18.984C8.14736 17.856 6.86841 15.192 6.86841 12.216C6.86841 8.78401 8.54999 5.83201 10.9421 5.04001C11.2026 4.96801 11.4631 5.08801 11.5342 5.35201C11.6053 5.61601 11.4868 5.88001 11.2263 5.95201C9.26051 6.60001 7.81578 9.24001 7.81578 12.216C7.81578 14.808 8.92893 17.208 10.5868 18.168C10.8237 18.312 10.8947 18.6 10.7526 18.816C10.6816 18.984 10.5158 19.056 10.35 19.056Z" fill="#718EBF"/>
<path d="M11.1316 19.68C6.96314 19.68 3.55261 16.224 3.55261 12C3.55261 7.77601 6.96314 4.32001 11.1316 4.32001C12.2921 4.32001 13.4052 4.58401 14.4474 5.08801C14.6842 5.20801 14.7789 5.49601 14.6605 5.73601C14.5421 5.97601 14.2579 6.07201 14.021 5.95201C13.2631 5.56801 12.4342 5.35201 11.5816 5.28001C11.5816 5.30401 11.5816 5.32801 11.5816 5.37601V19.2C11.6052 19.464 11.3921 19.68 11.1316 19.68ZM10.6579 5.30401C7.22367 5.54401 4.49998 8.47201 4.49998 12C4.49998 15.552 7.22367 18.456 10.6579 18.696V5.37601C10.6579 5.35201 10.6579 5.32801 10.6579 5.30401Z" fill="#718EBF"/>
<path d="M4.5 12.408C4.42895 12.408 4.3579 12.384 4.28684 12.36C4.05 12.24 3.95527 11.952 4.07369 11.712C4.83158 10.2 7.74474 9.16799 11.1316 9.16799C11.6289 9.16799 12.1263 9.19199 12.6237 9.23999C12.8842 9.26399 13.0737 9.50399 13.05 9.76799C13.0263 10.032 12.7895 10.224 12.5289 10.2C12.0789 10.152 11.6053 10.128 11.1316 10.128C7.76842 10.128 5.42369 11.184 4.90263 12.168C4.83158 12.312 4.66579 12.408 4.5 12.408Z" fill="#718EBF"/>
<path d="M11.1315 15.168C7.76838 15.168 4.85523 13.92 4.07365 12.168C3.95523 11.928 4.07365 11.64 4.31049 11.544C4.54733 11.424 4.83154 11.544 4.92628 11.784C5.56575 13.2 8.17102 14.232 11.1079 14.232C11.3684 14.232 11.5815 14.448 11.5815 14.712C11.5815 14.976 11.3921 15.168 11.1315 15.168Z" fill="#718EBF"/>
<path d="M14.2105 22.32C13.95 22.32 13.7368 22.104 13.7368 21.84V18H13.0263C12.7658 18 12.5526 17.784 12.5526 17.52V14.688C12.5526 13.536 13.571 12.24 14.921 12.24H17.2895C18.5921 12.24 19.6579 13.344 19.6579 14.688V17.28C19.6579 17.544 19.4447 17.76 19.1842 17.76H18.4737V20.04C18.4737 20.208 18.3789 20.376 18.2368 20.472L16.9816 21.168C16.7447 21.288 16.4605 21.216 16.3421 20.976C16.2237 20.736 16.2947 20.448 16.5316 20.328L17.55 19.776V17.28C17.55 17.016 17.7631 16.8 18.0237 16.8H18.7342V14.688C18.7342 13.872 18.0947 13.2 17.3131 13.2H14.921C14.1158 13.2 13.5 14.016 13.5 14.688V17.04H14.2105C14.471 17.04 14.6842 17.256 14.6842 17.52V21.84C14.6842 22.104 14.471 22.32 14.2105 22.32Z" fill="#718EBF"/>
<path d="M16.1052 11.52C14.8026 11.52 13.7368 10.44 13.7368 9.12C13.7368 7.8 14.8026 6.72 16.1052 6.72C17.4079 6.72 18.4737 7.8 18.4737 9.12C18.4737 10.44 17.4079 11.52 16.1052 11.52ZM16.1052 7.68C15.3237 7.68 14.6842 8.328 14.6842 9.12C14.6842 9.912 15.3237 10.56 16.1052 10.56C16.8868 10.56 17.5263 9.912 17.5263 9.12C17.5263 8.328 16.8868 7.68 16.1052 7.68Z" fill="#718EBF"/>
</svg>
