<svg width="9" height="10" viewBox="0 0 9 10" fill="none" xmlns="http://www.w3.org/2000/svg">
<g id="Group 405">
<path id="Vector" d="M0.951359 9.19994H6.02179C6.54451 9.19994 6.97315 8.72845 6.97315 8.15345V2.57598C6.97315 2.00098 6.54451 1.52948 6.02179 1.52948H0.951359C0.428634 1.52948 0 2.00098 0 2.57598V8.15345C0 8.72845 0.428634 9.19994 0.951359 9.19994ZM0.397271 2.57598C0.397271 2.24248 0.648179 1.96648 0.951359 1.96648H6.02179C6.32497 1.96648 6.57588 2.24248 6.57588 2.57598V8.15345C6.57588 8.48695 6.32497 8.76294 6.02179 8.76294H0.951359C0.648179 8.76294 0.397271 8.48695 0.397271 8.15345V2.57598Z" fill="#140E59"/>
<path id="Vector_2" d="M7.41223 0H2.3418C1.81908 0 1.39044 0.471498 1.39044 1.04649V1.10399C1.39044 1.23049 1.48453 1.32249 1.58908 1.32249C1.70408 1.32249 1.78771 1.21899 1.78771 1.10399V1.04649C1.78771 0.712997 2.03862 0.436998 2.3418 0.436998H7.41223C7.71541 0.436998 7.96632 0.712997 7.96632 1.04649V6.62397C7.96632 6.95747 7.71541 7.23346 7.41223 7.23346H7.35996C7.24496 7.23346 7.16132 7.33696 7.16132 7.45196C7.16132 7.56696 7.25541 7.67046 7.35996 7.67046H7.41223C7.93496 7.67046 8.36359 7.19896 8.36359 6.62397V1.04649C8.36359 0.471498 7.93496 0 7.41223 0Z" fill="#140E59"/>
</g>
</svg>
