<svg width="24" height="24" viewBox="0 0 24 24" fill="none" xmlns="http://www.w3.org/2000/svg">
<path d="M7.10864 4H8.29285C8.3448 4.00031 8.3963 3.99022 8.44439 3.97031C8.49249 3.95041 8.53623 3.92108 8.57311 3.884C8.6097 3.84663 8.63864 3.8023 8.65829 3.75357C8.67793 3.70483 8.68789 3.65265 8.68759 3.6V0.400006C8.68789 0.347364 8.67793 0.295179 8.65829 0.246444C8.63864 0.197709 8.6097 0.153383 8.57311 0.116007C8.53623 0.0789341 8.49249 0.049604 8.44439 0.0296982C8.3963 0.00979234 8.3448 -0.000297671 8.29285 6.68571e-06C6.3731 -0.000783843 4.5126 0.67365 3.02895 1.90817C1.5453 3.1427 0.530485 4.86077 0.157756 6.7691C-0.214974 8.67742 0.0774875 10.6577 0.985213 12.3718C1.89294 14.086 3.35965 15.4277 5.13496 16.168V16.8C4.82089 16.8 4.51968 16.9264 4.29759 17.1515C4.07551 17.3765 3.95075 17.6817 3.95075 18C3.95075 18.3183 4.07551 18.6235 4.29759 18.8485C4.51968 19.0736 4.82089 19.2 5.13496 19.2V19.6C4.82089 19.6 4.51968 19.7264 4.29759 19.9515C4.07551 20.1765 3.95075 20.4817 3.95075 20.8C3.95075 21.1182 4.07551 21.4235 4.29759 21.6485C4.51968 21.8736 4.82089 22 5.13496 22H5.37575C5.61489 22.5845 6.01964 23.084 6.53886 23.4354C7.05808 23.7868 7.66846 23.9744 8.29285 23.9744C8.91724 23.9744 9.52762 23.7868 10.0468 23.4354C10.5661 23.084 10.9708 22.5845 11.21 22H11.4507C11.7648 22 12.066 21.8736 12.2881 21.6485C12.5102 21.4235 12.635 21.1182 12.635 20.8C12.635 20.4817 12.5102 20.1765 12.2881 19.9515C12.066 19.7264 11.7648 19.6 11.4507 19.6V19.2C11.7648 19.2 12.066 19.0736 12.2881 18.8485C12.5102 18.6235 12.635 18.3183 12.635 18C12.635 17.6817 12.5102 17.3765 12.2881 17.1515C12.066 16.9264 11.7648 16.8 11.4507 16.8V16.168C11.8767 15.9879 12.2873 15.7725 12.6784 15.524C13.0614 15.8667 13.5128 16.1217 14.0019 16.2716C14.491 16.4214 15.0063 16.4626 15.5125 16.3923C16.0188 16.322 16.5041 16.1418 16.9354 15.8641C17.3666 15.5864 17.7337 15.2178 18.0116 14.7832C18.2894 14.3487 18.4715 13.8585 18.5454 13.3461C18.6192 12.8338 18.5832 12.3113 18.4397 11.8144C18.2961 11.3174 18.0485 10.8577 17.7136 10.4666C17.3788 10.0755 16.9646 9.76215 16.4994 9.548C16.5521 9.16762 16.5798 8.78411 16.5823 8.4C16.5826 8.34736 16.5727 8.29517 16.553 8.24644C16.5334 8.1977 16.5044 8.15338 16.4678 8.116C16.431 8.07893 16.3872 8.0496 16.3391 8.02969C16.291 8.00979 16.2395 7.9997 16.1876 8H13.4244V7.436C13.9369 7.28104 14.4686 7.20156 15.0034 7.2C16.469 7.2 17.8747 7.79 18.9111 8.8402C19.9474 9.89041 20.5297 11.3148 20.5297 12.8V13.2C20.5297 13.2718 20.5488 13.3423 20.5849 13.404L22.5942 16.8H20.9244C20.8197 16.8 20.7193 16.8421 20.6453 16.9172C20.5713 16.9922 20.5297 17.0939 20.5297 17.2V19.6C20.5297 19.7061 20.4881 19.8078 20.4141 19.8828C20.34 19.9578 20.2396 20 20.1349 20H16.9771C16.8801 19.9993 16.7862 20.0348 16.7134 20.0997C16.6406 20.1646 16.594 20.2544 16.5823 20.352L16.2349 23.2H13.4244V24H16.5823C16.6793 24.0007 16.7731 23.9652 16.8459 23.9003C16.9187 23.8354 16.9654 23.7456 16.9771 23.648L17.3244 20.8H20.1349C20.449 20.8 20.7502 20.6736 20.9723 20.4485C21.1944 20.2235 21.3192 19.9183 21.3192 19.6V17.6H23.2928C23.3625 17.6 23.4309 17.5813 23.4912 17.5458C23.5514 17.5103 23.6013 17.4593 23.6358 17.398C23.6703 17.3366 23.6881 17.2671 23.6875 17.1965C23.6869 17.1259 23.6678 17.0567 23.6323 16.996L21.3192 13.088V12.8C21.3192 11.1026 20.6537 9.47475 19.4693 8.27452C18.2849 7.07429 16.6784 6.4 15.0034 6.4C14.4335 6.39956 13.8663 6.47898 13.3178 6.636C13.1852 6.28892 12.9373 5.99955 12.6169 5.8177C12.2964 5.63586 11.9234 5.57291 11.5621 5.63969C11.2008 5.70648 10.8737 5.89883 10.6372 6.18362C10.4008 6.46841 10.2697 6.82783 10.2665 7.2V8H8.68759V6C8.68759 5.89392 8.646 5.79217 8.57197 5.71716C8.49794 5.64215 8.39754 5.6 8.29285 5.6H7.10864C6.89926 5.6 6.69845 5.51572 6.5504 5.36569C6.40234 5.21566 6.31917 5.01218 6.31917 4.8C6.31917 4.58783 6.40234 4.38435 6.5504 4.23432C6.69845 4.08429 6.89926 4 7.10864 4ZM8.29285 23.2C7.87762 23.2017 7.46941 23.0915 7.11009 22.8806C6.75077 22.6697 6.45328 22.3658 6.24811 22H10.3376C10.1324 22.3658 9.83493 22.6697 9.47561 22.8806C9.11629 23.0915 8.70808 23.2017 8.29285 23.2ZM11.4507 20.4C11.5554 20.4 11.6558 20.4421 11.7299 20.5171C11.8039 20.5922 11.8455 20.6939 11.8455 20.8C11.8455 20.9061 11.8039 21.0078 11.7299 21.0828C11.6558 21.1578 11.5554 21.2 11.4507 21.2H5.13496C5.03027 21.2 4.92986 21.1578 4.85584 21.0828C4.78181 21.0078 4.74022 20.9061 4.74022 20.8C4.74022 20.6939 4.78181 20.5922 4.85584 20.5171C4.92986 20.4421 5.03027 20.4 5.13496 20.4H11.4507ZM5.92443 19.6V19.2H10.6613V19.6H5.92443ZM11.4507 17.6C11.5554 17.6 11.6558 17.6421 11.7299 17.7171C11.8039 17.7922 11.8455 17.8939 11.8455 18C11.8455 18.1061 11.8039 18.2078 11.7299 18.2828C11.6558 18.3579 11.5554 18.4 11.4507 18.4H5.13496C5.03027 18.4 4.92986 18.3579 4.85584 18.2828C4.78181 18.2078 4.74022 18.1061 4.74022 18C4.74022 17.8939 4.78181 17.7922 4.85584 17.7171C4.92986 17.6421 5.03027 17.6 5.13496 17.6H11.4507ZM16.3455 10.356C16.6805 10.5398 16.9744 10.7918 17.2087 11.0962C17.443 11.4007 17.6126 11.7509 17.7069 12.1249C17.8013 12.4989 17.8183 12.8887 17.7569 13.2697C17.6954 13.6507 17.5569 14.0147 17.35 14.3388C17.1431 14.663 16.8723 14.9403 16.5546 15.1533C16.2369 15.3664 15.8791 15.5105 15.5038 15.5767C15.1285 15.643 14.7437 15.6298 14.3736 15.5381C14.0036 15.4465 13.6562 15.2782 13.3534 15.044C13.5702 14.8748 13.7783 14.6946 13.9771 14.504C14.2851 14.698 14.6407 14.8006 15.0034 14.8C15.4238 14.798 15.8326 14.6601 16.1702 14.4063C16.5079 14.1525 16.7567 13.7961 16.8805 13.3889C17.0043 12.9818 16.9966 12.5453 16.8584 12.1429C16.7203 11.7405 16.459 11.3934 16.1126 11.152C16.2039 10.891 16.2817 10.6253 16.3455 10.356ZM16.1876 12.8C16.1876 13.1183 16.0628 13.4235 15.8407 13.6485C15.6187 13.8736 15.3174 14 15.0034 14C14.8443 13.9992 14.6871 13.9652 14.5415 13.9C15.0473 13.3035 15.4685 12.6384 15.7928 11.924C15.9159 12.0335 16.0147 12.1682 16.0828 12.3192C16.1508 12.4702 16.1865 12.634 16.1876 12.8ZM10.6613 8.8C10.766 8.8 10.8664 8.75786 10.9404 8.68284C11.0144 8.60783 11.056 8.50609 11.056 8.4V7.2C11.056 6.98783 11.1392 6.78435 11.2872 6.63432C11.4353 6.48429 11.6361 6.4 11.8455 6.4C12.0549 6.4 12.2557 6.48429 12.4037 6.63432C12.5518 6.78435 12.635 6.98783 12.635 7.2V8.4C12.6347 8.45264 12.6446 8.50483 12.6643 8.55356C12.6839 8.6023 12.7128 8.64662 12.7494 8.684C12.7863 8.72107 12.8301 8.7504 12.8781 8.77031C12.9262 8.79021 12.9777 8.8003 13.0297 8.8H15.7928C15.7103 10.2783 15.2056 11.7005 14.3401 12.8936C13.4746 14.0866 12.2857 14.9991 10.9178 15.52C10.8423 15.5486 10.7772 15.6 10.7313 15.6672C10.6855 15.7344 10.661 15.8143 10.6613 15.896V16.8H8.68759V13.6H9.47706C9.89582 13.6 10.2974 13.4314 10.5935 13.1314C10.8897 12.8313 11.056 12.4243 11.056 12C11.056 11.5757 10.8897 11.1687 10.5935 10.8686C10.2974 10.5686 9.89582 10.4 9.47706 10.4H8.68759V8.8H10.6613ZM7.89811 10.8C7.89811 10.9061 7.9397 11.0078 8.01373 11.0828C8.08776 11.1579 8.18816 11.2 8.29285 11.2H9.47706C9.68644 11.2 9.88725 11.2843 10.0353 11.4343C10.1834 11.5843 10.2665 11.7878 10.2665 12C10.2665 12.2122 10.1834 12.4157 10.0353 12.5657C9.88725 12.7157 9.68644 12.8 9.47706 12.8H8.29285C8.2409 12.7997 8.1894 12.8098 8.14131 12.8297C8.09321 12.8496 8.04947 12.8789 8.01259 12.916C7.94046 12.9927 7.89957 13.0941 7.89811 13.2V16.8H5.92443V15.896C5.92469 15.8143 5.90024 15.7344 5.85437 15.6672C5.8085 15.6 5.7434 15.5486 5.66785 15.52C4.29948 14.9999 3.10998 14.0877 2.24436 12.8945C1.37875 11.7013 0.874418 10.2786 0.792855 8.8H2.76654V9.6C2.76654 10.0243 2.93289 10.4313 3.229 10.7314C3.52511 11.0314 3.92672 11.2 4.34548 11.2C4.76425 11.2 5.16586 11.0314 5.46197 10.7314C5.75808 10.4313 5.92443 10.0243 5.92443 9.6V8.8H7.89811V10.8ZM7.10864 6.4H7.89811V8H5.52969C5.425 8 5.3246 8.04214 5.25057 8.11716C5.17655 8.19217 5.13496 8.29391 5.13496 8.4V9.6C5.13496 9.81217 5.05178 10.0157 4.90373 10.1657C4.75567 10.3157 4.55487 10.4 4.34548 10.4C4.1361 10.4 3.9353 10.3157 3.78724 10.1657C3.63919 10.0157 3.55601 9.81217 3.55601 9.6V8.4C3.55631 8.34736 3.54635 8.29517 3.52671 8.24644C3.50707 8.1977 3.47812 8.15338 3.44154 8.116C3.36589 8.04291 3.26579 8.00147 3.16127 8H0.812592C0.907409 6.12496 1.68379 4.35184 2.99209 3.0224C4.30039 1.69296 6.04801 0.901303 7.89811 0.800006V3.2H7.10864C6.68988 3.2 6.28827 3.36858 5.99216 3.66863C5.69605 3.96869 5.52969 4.37566 5.52969 4.8C5.52969 5.22435 5.69605 5.63132 5.99216 5.93137C6.28827 6.23143 6.68988 6.4 7.10864 6.4Z" fill="#718EBF"/>
</svg>
