<svg width="18" height="22" viewBox="0 0 18 22" fill="none" xmlns="http://www.w3.org/2000/svg">
<path id="Vector" d="M1.40854 0H11.4392C11.4951 4.61863e-06 11.5503 0.011657 11.6013 0.0341906C11.6523 0.0567241 11.6978 0.089628 11.735 0.130737L17.879 5.99113C17.917 6.02724 17.9472 6.07054 17.9677 6.11843C17.9883 6.16632 17.9988 6.21781 17.9987 6.2698H18V20.6135C18 20.9932 17.8414 21.3394 17.5863 21.5914L17.5841 21.5936C17.3281 21.8443 16.9768 22 16.5915 22H1.40854C1.02102 22 0.668447 21.8439 0.413301 21.5927C0.158592 21.342 0 20.995 0 20.6135V1.3865C0 1.00504 0.158592 0.657987 0.413301 0.406834C0.668447 0.156111 1.02102 0 1.40854 0ZM3.86563 17.8194C3.64675 17.8194 3.46893 17.6448 3.46893 17.4294C3.46893 17.2139 3.64675 17.0389 3.86563 17.0389H14.1344C14.3533 17.0389 14.5306 17.2139 14.5306 17.4294C14.5306 17.6448 14.3533 17.8194 14.1344 17.8194H3.86563ZM3.86563 14.6275C3.64675 14.6275 3.46893 14.4529 3.46893 14.2375C3.46893 14.022 3.64675 13.847 3.86563 13.847H13.9745C14.1933 13.847 14.3712 14.022 14.3712 14.2375C14.3712 14.4529 14.1933 14.6275 13.9745 14.6275H3.86563ZM3.86563 11.4356C3.64675 11.4356 3.46893 11.2606 3.46893 11.0452C3.46893 10.8297 3.64675 10.6551 3.86563 10.6551H12.0451C12.264 10.6551 12.4418 10.8297 12.4418 11.0452C12.4418 11.2606 12.264 11.4356 12.0451 11.4356H3.86563ZM3.86563 8.24333C3.64675 8.24333 3.46893 8.06873 3.46893 7.85327C3.46893 7.63781 3.64675 7.46278 3.86563 7.46278H8.86587C9.08476 7.46278 9.26214 7.63781 9.26214 7.85327C9.26214 8.06873 9.08476 8.24333 8.86587 8.24333H3.86563ZM3.86563 5.05145C3.64675 5.05145 3.46893 4.87685 3.46893 4.66139C3.46893 4.55782 3.51073 4.4585 3.58512 4.38527C3.65952 4.31204 3.76042 4.2709 3.86563 4.2709H6.3249C6.377 4.2709 6.42858 4.281 6.47671 4.30062C6.52484 4.32025 6.56857 4.34901 6.60541 4.38527C6.64225 4.42153 6.67147 4.46458 6.69141 4.51195C6.71134 4.55933 6.7216 4.61011 6.7216 4.66139C6.7216 4.87685 6.54379 5.05145 6.3249 5.05145H3.86563ZM11.5711 1.05837V5.97822H16.7295L11.5711 1.05837ZM17.207 6.75878H11.1749C10.956 6.75878 10.7782 6.58374 10.7782 6.36829V0.780554H1.40854C1.2399 0.780554 1.08568 0.848933 0.973835 0.959027C0.862427 1.06869 0.792961 1.2205 0.792961 1.3865V20.6135C0.792961 20.7795 0.862427 20.9313 0.973835 21.041C1.08568 21.1511 1.2399 21.2194 1.40854 21.2194H16.5915C16.7614 21.2194 16.9152 21.1515 17.0257 21.0427L17.0275 21.041C17.138 20.9322 17.207 20.7808 17.207 20.6135V6.75878Z" fill="black"/>
</svg>
