<svg width="50" height="50" viewBox="0 0 50 50" fill="none" xmlns="http://www.w3.org/2000/svg">
<rect opacity="0.2" width="50" height="50" rx="12" fill="#2B77BB"/>
<path fill-rule="evenodd" clip-rule="evenodd" d="M17.2926 30.6855C17.0826 30.4755 16.9776 30.1835 17.0036 29.8875L17.3826 25.7175C17.4246 25.2605 17.6266 24.8295 17.9526 24.5035L26.9486 15.5075C27.6506 14.8025 28.9236 14.8375 29.6646 15.5765L32.4026 18.3145L32.4036 18.3155C33.1686 19.0815 33.1996 20.2995 32.4716 21.0295L23.4746 30.0265C23.1496 30.3515 22.7186 30.5535 22.2606 30.5955L18.0906 30.9745C18.0606 30.9765 18.0306 30.9775 17.9996 30.9775C17.7366 30.9775 17.4816 30.8735 17.2926 30.6855ZM29.0186 21.6565L26.3236 18.9615L28.2716 17.0125L30.9656 19.7065L29.0186 21.6565ZM22.0796 28.6025L19.1026 28.8735L19.3666 25.9175L24.9836 20.3005L27.6796 22.9975L22.0796 28.6025ZM31.9996 34.9775C32.5496 34.9775 32.9996 34.5275 32.9996 33.9775C32.9996 33.4285 32.5496 32.9775 31.9996 32.9775H17.9996C17.4506 32.9775 16.9996 33.4285 16.9996 33.9775C16.9996 34.5275 17.4506 34.9775 17.9996 34.9775H31.9996Z" fill="#2B77BB"/>
</svg>
