<svg width="24" height="24" viewBox="0 0 24 24" fill="none" xmlns="http://www.w3.org/2000/svg">
<path d="M11.9118 0C5.3436 0 0 5.38318 0 12C0 18.6168 5.3436 24 11.9118 24C18.4799 24 23.8235 18.6168 23.8235 12C23.8235 5.38318 18.4799 0 11.9118 0ZM5.8523 20.6652C6.59047 17.9399 9.07266 16.0045 11.9118 16.0045C13.5883 16.0045 15.1652 16.6629 16.3523 17.8586C17.1342 18.6464 17.6888 19.6094 17.9722 20.6645C16.2576 21.8852 14.1664 22.6032 11.9118 22.6032C9.65757 22.6032 7.56672 21.8855 5.8523 20.6652ZM19.1275 19.7122C18.7492 18.652 18.1402 17.6844 17.3327 16.8709C15.8838 15.4115 13.9586 14.6076 11.9118 14.6076C8.65216 14.6076 5.77821 16.6975 4.69772 19.7138C2.66032 17.779 1.38655 15.0366 1.38655 12C1.38655 6.1534 6.10803 1.39683 11.9118 1.39683C17.7155 1.39683 22.437 6.1534 22.437 12C22.437 15.0357 21.1639 17.7775 19.1275 19.7122Z" fill="#718EBF"/>
<path d="M11.9118 5.17422C9.45625 5.17422 7.4584 7.18675 7.4584 9.66046C7.4584 12.1343 9.45625 14.1468 11.9118 14.1468C14.3673 14.1468 16.3651 12.1343 16.3651 9.66046C16.3651 7.18675 14.3673 5.17422 11.9118 5.17422ZM11.9118 12.75C10.2207 12.75 8.84496 11.3641 8.84496 9.66046C8.84496 7.95696 10.2207 6.57105 11.9118 6.57105C13.6029 6.57105 14.9786 7.95696 14.9786 9.66046C14.9786 11.3641 13.6029 12.75 11.9118 12.75Z" fill="#718EBF"/>
</svg>
