<svg width="24" height="24" viewBox="0 0 24 24" fill="none" xmlns="http://www.w3.org/2000/svg">
<path d="M23.9915 17.766C23.8321 18.436 23.3786 18.7967 22.784 19.11C19.9646 20.5914 17.1526 22.0893 14.3481 23.6037C13.9531 23.8285 13.5133 23.9614 13.0608 23.9928C12.6084 24.0241 12.1547 23.9532 11.7329 23.7851C10.4036 23.289 9.07011 22.8081 7.73256 22.3422C7.42991 22.2459 7.11595 22.1904 6.79887 22.1773C6.36574 22.1505 5.92851 22.1773 5.46882 22.1773C5.46882 22.3834 5.46882 22.5896 5.46882 22.7833C5.47563 22.8427 5.46886 22.9029 5.44903 22.9593C5.42921 23.0157 5.39685 23.0667 5.35444 23.1085C5.31203 23.1503 5.2607 23.1817 5.20439 23.2004C5.14807 23.2191 5.08826 23.2245 5.02955 23.2162H0.412167C0.120005 23.2162 -0.025055 23.0699 0.00354832 22.7751C0.0648411 21.831 0.138392 20.889 0.207857 19.9469C0.277323 19.0049 0.350874 18.0629 0.412167 17.1208C0.477545 16.2262 0.538838 15.3295 0.616476 14.4411C0.640993 14.1319 0.77788 14.0144 1.09252 14.0144C2.39737 14.0144 3.70222 14.0144 5.00708 14.0144C5.3258 14.0144 5.46473 14.1566 5.46882 14.4741C5.46882 14.6472 5.46882 14.8204 5.46882 15.0203C5.56484 15.0203 5.64657 15.0203 5.73033 15.0203C6.331 15.0203 6.93167 15.0203 7.53438 15.0203C7.95708 15.0133 8.37418 15.1185 8.74389 15.3254C9.57339 15.7768 10.4131 16.2097 11.2446 16.6611C11.4956 16.798 11.7766 16.8689 12.0619 16.8673C13.0221 16.8673 13.9844 16.9003 14.9426 16.857C15.9008 16.8137 16.6078 17.296 16.665 18.3473C16.8693 18.2607 17.0531 18.1783 17.2411 18.0917L21.5827 16.0798C22.6716 15.5789 23.591 15.983 23.9588 17.1291C23.9588 17.1497 23.9813 17.1703 23.9915 17.1909V17.766ZM5.48312 21.4125C5.92851 21.4125 6.35143 21.4125 6.77231 21.4125C7.18566 21.4004 7.59733 21.4704 7.98386 21.6187C9.32005 22.1154 10.6644 22.5978 12.0026 23.0925C12.3225 23.2208 12.667 23.2748 13.0104 23.2506C13.3538 23.2263 13.6874 23.1244 13.9865 22.9524C14.4789 22.6803 14.9794 22.4226 15.4759 22.1567C17.8677 20.8814 20.2594 19.604 22.6512 18.3246C22.8427 18.2269 23.0091 18.0858 23.1375 17.9124C23.2321 17.7567 23.2741 17.5743 23.2571 17.3926C23.2402 17.2108 23.1652 17.0395 23.0435 16.9044C22.9138 16.7603 22.7405 16.6633 22.5507 16.6287C22.3608 16.594 22.1649 16.6235 21.9933 16.7127C20.0279 17.6114 18.0638 18.5136 16.1011 19.4192C15.7416 19.5908 15.3484 19.6782 14.9508 19.6748C13.6616 19.6748 12.3724 19.6748 11.0832 19.6748C10.6154 19.6748 10.4703 19.7985 10.3886 20.2541C10.3758 20.3479 10.3299 20.4339 10.2594 20.4964C10.1888 20.5589 10.0983 20.5936 10.0045 20.5942C9.90693 20.5878 9.81568 20.5433 9.75008 20.4702C9.68447 20.3971 9.64968 20.3011 9.65307 20.2025C9.65223 20.1333 9.65908 20.0641 9.6735 19.9964C9.72829 19.6906 9.89176 19.4156 10.1332 19.2228C10.3747 19.03 10.6777 18.9327 10.9852 18.9492C12.3377 18.9492 13.6882 18.9492 15.0407 18.9492C15.1655 18.9526 15.2903 18.9415 15.4125 18.9162C15.5583 18.8821 15.6875 18.7973 15.7775 18.6767C15.8675 18.5561 15.9126 18.4074 15.9049 18.2566C15.8886 17.8567 15.5985 17.6011 15.1408 17.599C14.0947 17.599 13.0466 17.599 12.0006 17.599C11.6236 17.5996 11.2528 17.5024 10.9239 17.3166C10.3334 16.9971 9.74092 16.6797 9.14434 16.3705C7.72439 15.6346 8.28624 15.7521 6.63951 15.7521H5.48312V21.4125ZM1.3336 14.7482L0.755406 22.4391H4.71287V14.7482H1.3336Z" fill="#2B77BB"/>
<path d="M8.69895 7.07796C8.69895 6.00606 8.69895 4.93416 8.69895 3.86226C8.6899 3.74943 8.71517 3.6365 8.77139 3.53853C8.8276 3.44056 8.91209 3.36221 9.01358 3.31395C10.8537 2.24892 12.6925 1.17702 14.5299 0.0982528C14.6222 0.0342581 14.7316 0 14.8435 0C14.9555 0 15.0649 0.0342581 15.1572 0.0982528C17.0055 1.18252 18.8558 2.26129 20.7082 3.33456C20.7991 3.3798 20.8746 3.45106 20.9255 3.53942C20.9764 3.62779 21.0003 3.72933 20.9943 3.83134C20.9943 5.99988 20.9943 8.16772 20.9943 10.3349C21.0016 10.4332 20.9799 10.5314 20.9319 10.6173C20.8839 10.7031 20.8117 10.7727 20.7246 10.8172C18.8463 11.9056 16.9755 12.9968 15.1122 14.0906C15.0343 14.1426 14.943 14.1703 14.8497 14.1703C14.7563 14.1703 14.665 14.1426 14.5871 14.0906C12.717 13.0023 10.849 11.9166 8.98294 10.8337C8.88902 10.7872 8.81125 10.713 8.75984 10.621C8.70843 10.5291 8.68578 10.4236 8.69486 10.3184C8.70303 9.23825 8.69895 8.1581 8.69895 7.07796ZM19.3741 10.743C19.6274 10.5946 19.8747 10.4627 20.1096 10.306C20.1466 10.2789 20.1774 10.244 20.2 10.2038C20.2225 10.1637 20.2363 10.1191 20.2404 10.0731C20.2485 8.07909 20.2485 6.08645 20.2404 4.0952C20.2363 4.04891 20.2226 4.00403 20.2 3.96351C20.1775 3.923 20.1467 3.88778 20.1096 3.8602C18.4002 2.85152 16.6854 1.85039 14.9651 0.856827C14.9266 0.83904 14.8848 0.829833 14.8425 0.829833C14.8002 0.829833 14.7584 0.83904 14.7199 0.856827C12.9942 1.85177 11.2726 2.85358 9.555 3.86226C9.51943 3.88722 9.48967 3.91969 9.46779 3.95743C9.44591 3.99516 9.43245 4.03725 9.42833 4.08077C9.42833 6.08233 9.42833 8.08389 9.42833 10.0855C9.42833 10.1411 9.44263 10.2277 9.47941 10.2504C9.75318 10.4215 10.0351 10.5822 10.3212 10.7492C10.3539 10.6606 10.3743 10.609 10.3927 10.5575C10.6562 9.73297 11.1425 9.17435 11.9883 8.90843C12.4635 8.73284 12.9269 8.52627 13.3756 8.29003C13.2264 7.95403 13.1039 7.67163 12.967 7.39747C12.9368 7.33442 12.8968 7.27665 12.8485 7.22638C12.585 6.95321 12.4171 6.60073 12.3704 6.2225C12.3392 6.09931 12.3361 5.97061 12.3612 5.84603C12.3863 5.72145 12.4391 5.60421 12.5154 5.50309C12.569 5.43901 12.6094 5.36482 12.6343 5.28485C12.6592 5.20487 12.6681 5.12071 12.6605 5.03723C12.6484 4.61316 12.7807 4.1977 13.0353 3.86011C13.29 3.52252 13.6517 3.28319 14.06 3.18202C14.4878 3.09644 14.926 3.07767 15.3594 3.12637C15.8109 3.17728 16.2277 3.395 16.5295 3.73756C16.8313 4.08011 16.9967 4.52326 16.9939 4.98157C16.9795 5.08505 16.9876 5.19044 17.0176 5.29045C17.0476 5.39046 17.0988 5.48271 17.1676 5.56081C17.2338 5.64906 17.2722 5.75534 17.2779 5.86589C17.3205 6.3063 17.1996 6.74701 16.9387 7.1027C16.7038 7.47374 16.4954 7.86127 16.2461 8.29415C16.7957 8.53121 17.2983 8.78269 17.8234 8.97027C18.3539 9.1476 18.7941 9.5281 19.0492 10.0298C19.1759 10.2462 19.2617 10.4812 19.3741 10.743ZM13.9293 8.80536C13.868 8.84041 13.8067 8.87751 13.7454 8.90637C13.2531 9.17606 12.7432 9.4116 12.2192 9.61135C11.5123 9.83397 11.1976 10.3369 11.0281 10.9924C11.0247 11.0337 11.0314 11.0751 11.0474 11.1131C11.0634 11.1512 11.0883 11.1847 11.12 11.211C12.3173 11.9187 13.5179 12.6195 14.722 13.3135C14.758 13.3298 14.797 13.3382 14.8364 13.3382C14.8758 13.3382 14.9148 13.3298 14.9508 13.3135C16.163 12.6195 17.3746 11.9194 18.5855 11.213C18.61 11.1984 18.6312 11.1787 18.6477 11.1552C18.6643 11.1318 18.6758 11.1051 18.6815 11.077C18.6815 10.5967 18.1748 9.91024 17.7233 9.71442C17.1104 9.4485 16.4974 9.15373 15.8968 8.88988C15.803 8.85171 15.6983 8.85171 15.6046 8.88988C15.3765 9.0211 15.1184 9.0901 14.8558 9.0901C14.5932 9.0901 14.3351 9.0211 14.107 8.88988L13.9293 8.80536ZM16.2747 5.09495C16.3442 4.31576 15.7823 3.88288 15.1715 3.82928C14.8769 3.79995 14.5797 3.81313 14.2888 3.86845C14.0337 3.92134 13.805 4.06263 13.6423 4.26781C13.4796 4.473 13.3932 4.72916 13.3981 4.99188C13.3981 5.14854 13.3981 5.30727 13.4103 5.46393C13.4262 5.54919 13.4149 5.63733 13.3783 5.71579C13.3416 5.79426 13.2813 5.85904 13.206 5.90093C13.1651 5.92155 13.1141 5.97926 13.1161 6.01637C13.1126 6.14584 13.1364 6.27459 13.1861 6.39402C13.2358 6.51345 13.3101 6.62082 13.4042 6.70898C13.4999 6.80553 13.5786 6.91775 13.6371 7.04086C13.7776 7.36932 13.9479 7.68398 14.1458 7.98083C14.5728 8.49822 15.1674 8.47761 15.576 7.94579C15.7524 7.67068 15.9042 7.38025 16.0296 7.07796C16.0847 6.96665 16.1174 6.81617 16.2053 6.75845C16.3095 6.68242 16.396 6.58439 16.4588 6.47118C16.5216 6.35797 16.5592 6.23231 16.5689 6.10294C16.5791 6.04935 16.5689 5.94834 16.5342 5.93391C16.1991 5.77313 16.2523 5.48454 16.2747 5.09907V5.09495Z" fill="#2B77BB"/>
</svg>
