<svg width="29" height="24" viewBox="0 0 29 24" fill="none" xmlns="http://www.w3.org/2000/svg">
<path d="M16.2869 23.8454L11.6719 19.4995L6.93029 23.7387C6.82482 23.8524 6.67482 23.922 6.5084 23.922C6.19199 23.922 5.93651 23.6691 5.93651 23.3558V14.1003L0.177712 8.68014C-0.0519837 8.46436 -0.0590152 8.10704 0.156617 7.87965C0.229276 7.80308 0.320686 7.75204 0.416783 7.7242L28.074 0.0209092C28.3787 -0.0626204 28.6928 0.1114 28.7795 0.413034C28.824 0.566172 28.7982 0.72395 28.7232 0.851565L17.1916 23.6876C17.051 23.9661 16.7088 24.0798 16.4275 23.9405C16.3736 23.915 16.3267 23.8825 16.2869 23.8454ZM10.8421 18.7199L7.0803 15.1792V22.0843L10.8421 18.7199ZM6.59747 13.1629L24.4856 2.19732L1.69183 8.54557L6.59747 13.1629ZM26.8201 2.09523L7.45062 13.9657L16.5142 22.4997L26.8201 2.09523Z" fill="#2E75B5"/>
</svg>
