<svg width="30" height="24" viewBox="0 0 30 24" fill="none" xmlns="http://www.w3.org/2000/svg">
<path d="M26.0029 13.0929C25.3267 12.8688 24.6059 12.925 23.9715 13.2509C22.6622 13.9237 22.1371 15.5504 22.801 16.8771C23.27 17.8137 24.2082 18.3542 25.1799 18.3542C25.5845 18.3542 25.9948 18.2606 26.3795 18.0628C27.6887 17.3899 28.2135 15.7633 27.5496 14.4366C27.2282 13.7941 26.6788 13.3168 26.0029 13.0929ZM26.1357 17.5752C25.0913 18.1121 23.8116 17.6877 23.2822 16.6297C22.7529 15.572 23.1716 14.275 24.2152 13.7386C24.5173 13.5834 24.844 13.5049 25.1732 13.5049C25.3952 13.5049 25.6179 13.5407 25.835 13.6126C26.3739 13.7911 26.8119 14.1716 27.0684 14.684C27.5977 15.7418 27.1794 17.0387 26.1357 17.5752Z" fill="#718EBF"/>
<path d="M24.6051 11.226L19.0619 0.149816C18.9952 0.0154393 18.8325 -0.0388453 18.6994 0.0296779L16.5597 1.12925C16.4958 1.162 16.4473 1.21913 16.4252 1.28819C16.4031 1.35707 16.4087 1.432 16.441 1.49679L16.6602 1.93445L15.9267 2.31144C14.4471 1.6169 12.8647 1.26203 11.2192 1.26203C5.03281 1.26203 0 6.36212 0 12.631C0 15.2464 0.878247 17.6565 2.34851 19.5795C2.36068 19.6027 2.37787 19.6219 2.39611 19.6408C4.45185 22.2921 7.64138 24 11.2192 24C15.4914 24 19.364 21.5459 21.2564 17.7033C21.7911 18.7547 22.6941 19.5364 23.8046 19.9044C24.2556 20.054 24.7186 20.128 25.1798 20.128C25.8634 20.128 26.5425 19.965 27.1698 19.6425C28.2205 19.1026 29.0007 18.1805 29.3671 17.0459C29.7331 15.9114 29.6415 14.7002 29.1086 13.6355C28.2669 11.9543 26.4402 10.9857 24.6051 11.226ZM11.2192 1.80879C12.6404 1.80879 14.0124 2.08549 15.3064 2.63025L14.8996 2.83931C14.7665 2.90765 14.7134 3.07211 14.7809 3.20684L15.3359 4.31603C15.3682 4.38064 15.4248 4.42958 15.4926 4.45219C15.5614 4.47497 15.6352 4.46874 15.6984 4.43617L17.4594 3.5313L17.57 3.752L16.5081 4.29752C16.4442 4.33027 16.3957 4.3874 16.3736 4.45628C16.3514 4.52534 16.3571 4.60027 16.3894 4.66505L16.9444 5.77424C17.0115 5.90826 17.1734 5.96343 17.3069 5.89438L18.3688 5.34886L21.9846 12.573C20.871 13.7576 20.4944 15.4863 20.9785 17.0254C20.6914 17.6794 20.3442 18.2933 19.947 18.8642C19.0424 16.4182 16.3388 14.5823 13.0335 14.0821C15.1582 13.3215 16.6873 11.2714 16.6873 8.86117C16.6873 5.80592 14.2346 3.3204 11.2196 3.3204C8.20452 3.3204 5.75153 5.80592 5.75153 8.86117C5.75153 11.2717 7.28114 13.322 9.40632 14.0823C6.10661 14.5825 3.404 16.4154 2.49267 18.8581C1.26426 17.0956 0.539568 14.9481 0.539568 12.631C0.539568 6.66362 5.33034 1.80879 11.2192 1.80879ZM11.2196 13.8554C8.50206 13.8554 6.29109 11.6149 6.29109 8.86117C6.29109 6.10742 8.50206 3.86716 11.2196 3.86716C13.9371 3.86716 16.1477 6.10742 16.1477 8.86117C16.1477 11.6149 13.9371 13.8554 11.2196 13.8554ZM11.2192 23.4532C7.85272 23.4532 4.84704 21.865 2.88817 19.3909C3.71284 16.543 7.18374 14.4883 11.2199 14.4883C15.2622 14.4883 18.7346 16.5453 19.5507 19.3953C17.5542 21.9193 14.512 23.4532 11.2192 23.4532ZM28.8542 16.8759C28.5328 17.8717 27.8482 18.681 26.9261 19.1548C26.0043 19.6284 24.9554 19.7106 23.9725 19.3847C22.9899 19.0592 22.1911 18.3653 21.7236 17.4308C20.9574 15.9004 21.2782 14.0043 22.5034 12.8199C22.5997 12.7269 22.6123 12.578 22.5364 12.4673L18.7282 4.85763C18.6611 4.72343 18.4992 4.66843 18.3657 4.73749L17.3038 5.28301L16.9925 4.66149L18.0544 4.11598C18.1184 4.08323 18.1669 4.0261 18.189 3.95722C18.2111 3.88816 18.2055 3.81323 18.1732 3.74844L17.8187 3.04007C17.7864 2.97547 17.7299 2.92652 17.6621 2.90392C17.5936 2.88113 17.5194 2.88736 17.4562 2.91993L15.6952 3.8248L15.384 3.20328L17.1446 2.29842C17.2778 2.23007 17.3308 2.06562 17.2634 1.93089L17.0442 1.49323L18.7026 0.641048L24.1889 11.6033C24.1899 11.6065 24.191 11.6099 24.192 11.6133C24.2342 11.7425 24.3659 11.8189 24.4955 11.7963C26.1638 11.4944 27.8615 12.3525 28.6273 13.8829C29.0949 14.8174 29.1753 15.8803 28.8542 16.8759Z" fill="#718EBF"/>
</svg>
