<svg width="23" height="23" viewBox="0 0 23 23" fill="none" xmlns="http://www.w3.org/2000/svg">
<g id="Group">
<path id="Vector" d="M11.195 0C5.02608 1.76378e-06 0 5.02835 0 11.1973C0 17.3662 5.02608 22.3831 11.195 22.3831C17.3639 22.3831 22.39 17.3662 22.39 11.1973C22.39 5.02835 17.3639 -1.32283e-06 11.195 0ZM11.195 2.33333C13.2708 2.33333 15.1767 3.04151 16.6842 4.22917L4.19954 16.6455C3.03004 15.1441 2.33333 13.2555 2.33333 11.1973C2.33333 6.28938 6.28711 2.33333 11.195 2.33333ZM18.3112 5.90169C19.4088 7.37709 20.0566 9.20981 20.0566 11.1973C20.0566 16.1052 16.1029 20.0589 11.195 20.0589C9.19009 20.0589 7.34499 19.399 5.86295 18.2839L18.3112 5.90169Z" fill="#FF0000"/>
</g>
</svg>
