<svg width="24" height="20" viewBox="0 0 24 20" fill="none" xmlns="http://www.w3.org/2000/svg">
<g id="Group">
<path id="Vector" d="M13.5719 19.8705L9.72621 16.2491L5.77504 19.7815C5.68715 19.8763 5.56215 19.9343 5.42348 19.9343C5.15981 19.9343 4.94692 19.7235 4.94692 19.4625V11.7498L0.148088 7.2332C-0.0433183 7.05339 -0.0491776 6.75563 0.13051 6.56615C0.191057 6.50234 0.267229 6.45981 0.347307 6.4366L23.3942 0.0174237C23.6481 -0.0521819 23.9098 0.0928297 23.9821 0.344183C24.0192 0.471793 23.9977 0.603271 23.9352 0.709612L14.3258 19.739C14.2086 19.971 13.9235 20.0658 13.6891 19.9498C13.6442 19.9285 13.6051 19.9014 13.5719 19.8705ZM9.03481 15.5994L5.90004 12.6489V18.403L9.03481 15.5994ZM5.4977 10.9687L20.4039 1.83104L1.40981 7.12106L5.4977 10.9687ZM22.3493 1.74596L6.20864 11.6377L13.7614 18.7491L22.3493 1.74596Z" fill="black"/>
</g>
</svg>
