<svg width="30" height="30" viewBox="0 0 30 30" fill="none" xmlns="http://www.w3.org/2000/svg">
<circle cx="15" cy="15" r="15" fill="#2B77BB"/>
<g clip-path="url(#clip0_1375_150)">
<path d="M22.587 11.1628L21.2364 12.5134C21.0987 12.6511 20.876 12.6511 20.7383 12.5134L17.4864 9.26147C17.3487 9.12378 17.3487 8.90112 17.4864 8.76343L18.837 7.41284C19.3848 6.86499 20.2754 6.86499 20.8262 7.41284L22.587 9.17358C23.1377 9.72144 23.1377 10.6121 22.587 11.1628ZM16.3262 9.92358L8.63285 17.6169L8.01176 21.1765C7.9268 21.657 8.34574 22.073 8.82621 21.991L12.3858 21.3669L20.0791 13.6736C20.2168 13.5359 20.2168 13.3132 20.0791 13.1755L16.8272 9.92358C16.6866 9.78589 16.4639 9.78589 16.3262 9.92358ZM11.6358 16.9578C11.4746 16.7966 11.4746 16.5388 11.6358 16.3777L16.1475 11.866C16.3086 11.7048 16.5664 11.7048 16.7276 11.866C16.8887 12.0271 16.8887 12.2849 16.7276 12.446L12.2159 16.9578C12.0547 17.1189 11.7969 17.1189 11.6358 16.9578ZM10.5782 19.4216H11.9844V20.4851L10.0948 20.8162L9.18363 19.905L9.51469 18.0154H10.5782V19.4216Z" fill="white"/>
</g>
<defs>
<clipPath id="clip0_1375_150">
<rect width="15" height="15" fill="white" transform="translate(8 7)"/>
</clipPath>
</defs>
</svg>
