<svg width="30" height="30" viewBox="0 0 30 30" fill="none" xmlns="http://www.w3.org/2000/svg">
<path d="M9.32533 24.1749H6.92528C3.25028 23.9124 1.60034 21.0874 1.60034 18.5749C1.60034 16.0624 3.25029 13.2249 6.86279 12.9749C7.37529 12.9249 7.82528 13.3249 7.86278 13.8499C7.90028 14.3624 7.51284 14.8124 6.98784 14.8499C4.56284 15.0249 3.47534 16.8499 3.47534 18.5874C3.47534 20.3249 4.56284 22.1499 6.98784 22.3249H9.32533C9.83783 22.3249 10.2628 22.7499 10.2628 23.2624C10.2628 23.7749 9.83783 24.1749 9.32533 24.1749Z" fill="#292D32"/>
<path d="M20.8374 24.175C20.8124 24.175 20.7999 24.175 20.7749 24.175C20.2624 24.175 19.7874 23.75 19.7874 23.2375C19.7874 22.7 20.1874 22.3 20.7124 22.3C22.2499 22.3 23.6249 21.7625 24.6999 20.8C26.6499 19.1 26.7749 16.65 26.2499 14.925C25.7249 13.2125 24.2624 11.25 21.7124 10.9375C21.2999 10.8875 20.9749 10.575 20.8999 10.1625C20.3999 7.16251 18.7874 5.0875 16.3374 4.3375C13.8124 3.55 10.8624 4.325 9.02486 6.25C7.23736 8.1125 6.82487 10.725 7.86237 13.6C8.03737 14.0875 7.78743 14.625 7.29993 14.8C6.81243 14.975 6.2749 14.725 6.0999 14.2375C4.8374 10.7125 5.41241 7.3375 7.67491 4.9625C9.98741 2.5375 13.6999 1.57499 16.8874 2.54999C19.8124 3.44999 21.8749 5.8625 22.6249 9.2125C25.1749 9.7875 27.2249 11.725 28.0374 14.4C28.9249 17.3125 28.1249 20.3125 25.9374 22.2125C24.5499 23.4625 22.7374 24.175 20.8374 24.175Z" fill="#292D32"/>
<path d="M15 27.8501C12.4875 27.8501 10.1375 26.5126 8.85002 24.3501C8.71252 24.1376 8.57502 23.8876 8.46252 23.6126C8.03752 22.7251 7.8125 21.7126 7.8125 20.6626C7.8125 16.7001 11.0375 13.4751 15 13.4751C18.9625 13.4751 22.1875 16.7001 22.1875 20.6626C22.1875 21.7251 21.9625 22.7251 21.5125 23.6501C21.4125 23.8876 21.275 24.1376 21.125 24.3751C19.8625 26.5126 17.5125 27.8501 15 27.8501ZM15 15.3501C12.075 15.3501 9.6875 17.7376 9.6875 20.6626C9.6875 21.4376 9.85001 22.1626 10.1625 22.8251C10.2625 23.0376 10.35 23.2126 10.45 23.3751C11.4 24.9876 13.1375 25.9751 14.9875 25.9751C16.8375 25.9751 18.575 24.9876 19.5125 23.4001C19.625 23.2126 19.725 23.0376 19.8 22.8626C20.1375 22.1751 20.3 21.4501 20.3 20.6751C20.3125 17.7376 17.925 15.3501 15 15.3501Z" fill="#292D32"/>
<path d="M14.2874 22.8376C14.0499 22.8376 13.8124 22.7501 13.6249 22.5626L12.3874 21.325C12.0249 20.9625 12.0249 20.3625 12.3874 20C12.7499 19.6375 13.3499 19.6375 13.7124 20L14.3124 20.6L16.3124 18.75C16.6999 18.4 17.2874 18.425 17.6374 18.8C17.9874 19.175 17.9624 19.7751 17.5874 20.1251L14.9249 22.5876C14.7374 22.7501 14.5124 22.8376 14.2874 22.8376Z" fill="#292D32"/>
</svg>
