<svg width="25" height="13" viewBox="0 0 25 13" fill="none" xmlns="http://www.w3.org/2000/svg">
<g id="Group">
<path id="Vector" d="M12.2012 0C7.64026 0 3.36985 2.06258 0.145252 5.81008C0.0581008 5.92629 0 6.07154 0 6.21679C0 6.36204 0.058101 6.5073 0.174303 6.6235C3.3989 10.371 7.66931 12.4336 12.2012 12.4336C16.6459 12.4336 20.8873 10.371 24.17 6.59445C24.3733 6.36204 24.3443 6.04249 24.17 5.83914C20.8873 2.06258 16.6168 0 12.2012 0ZM12.2012 11.2716C8.13412 11.2716 4.29946 9.47044 1.36537 6.21679C4.29946 2.96314 8.13412 1.16202 12.2012 1.16202C16.152 1.16202 19.9286 2.96314 22.9498 6.21679C19.9286 9.47044 16.152 11.2716 12.2012 11.2716Z" fill="black"/>
<path id="Vector_2" d="M12.1431 1.85921C9.7319 1.85921 7.78552 3.80559 7.78552 6.21677C7.78552 8.62796 9.7319 10.5743 12.1431 10.5743C14.5543 10.5743 16.5006 8.62796 16.5006 6.21677C16.5006 3.80559 14.5543 1.85921 12.1431 1.85921ZM12.1431 9.41232C10.371 9.41232 8.94754 7.98885 8.94754 6.21677C8.94754 4.44469 10.371 3.02122 12.1431 3.02122C13.9152 3.02122 15.3386 4.44469 15.3386 6.21677C15.3386 7.98885 13.9152 9.41232 12.1431 9.41232Z" fill="black"/>
</g>
</svg>
